<svg xmlns="http://www.w3.org/2000/svg" width="21.453" height="20.5" viewBox="0 0 21.453 20.5">
  <path id="Icon_feather-star" data-name="Icon feather-star" d="M12.727,2a1,1,0,0,1,.9.557L16.4,8.175l6.2.906a1,1,0,0,1,.553,1.706l-4.487,4.37,1.059,6.173a1,1,0,0,1-1.451,1.054l-5.546-2.916L7.181,22.385A1,1,0,0,1,5.73,21.331l1.059-6.173L2.3,10.788a1,1,0,0,1,.553-1.706l6.2-.906L11.83,2.557A1,1,0,0,1,12.727,2ZM20.3,10.768l-4.717-.69a1,1,0,0,1-.752-.547L12.727,5.259,10.618,9.531a1,1,0,0,1-.752.547l-4.717.69,3.413,3.324a1,1,0,0,1,.288.885l-.805,4.695,4.217-2.218a1,1,0,0,1,.931,0l4.217,2.218L16.6,14.977a1,1,0,0,1,.288-.885Z" transform="translate(-2 -2)"/>
</svg>
