<svg id="_9045126_rule_draft_icon_1_" data-name="9045126_rule_draft_icon (1)" xmlns="http://www.w3.org/2000/svg" width="23" height="23" viewBox="0 0 23 23">
  <path id="Trazado_1" data-name="Trazado 1" d="M25.829,18.361,23.678,16.21a.717.717,0,0,0-1.014,0L16,22.874v3.165h3.165l6.664-6.664a.717.717,0,0,0,0-1.014Zm-7.258,6.244H17.434V23.468l3.586-3.586,1.137,1.137Zm4.6-4.6-1.137-1.137,1.137-1.137,1.137,1.137Z" transform="translate(-4.526 -4.526)"/>
  <rect id="Rect치ngulo_1" data-name="Rect치ngulo 1" width="7" height="2" transform="translate(6 11)"/>
  <rect id="Rect치ngulo_2" data-name="Rect치ngulo 2" width="8" height="2" transform="translate(6 7)"/>
  <path id="Trazado_2" data-name="Trazado 2" d="M19.21,3.434A1.436,1.436,0,0,0,17.776,2H3.434A1.436,1.436,0,0,0,2,3.434v9.322a7.875,7.875,0,0,0,4.177,6.961L9.888,21.7V20.071L6.852,18.452a6.444,6.444,0,0,1-3.417-5.7V3.434H17.776V9.888H19.21Z" transform="translate(-0.566 -0.566)"/>
  <rect id="_Transparent_Rectangle_" data-name="&lt;Transparent Rectangle&gt;" width="23" height="23" fill="none"/>
</svg>
