<svg xmlns="http://www.w3.org/2000/svg" width="14.239" height="17.347" viewBox="0 0 14.239 17.347">
  <g id="delete_5_" data-name="delete (5)" transform="translate(0.4 0.4)">
    <path id="Trazado_19512" data-name="Trazado 19512" d="M10.383,16.945H3.05a2.318,2.318,0,0,1-1.676-.724A2.52,2.52,0,0,1,.7,14.472V5.2a1.88,1.88,0,0,1,.78-3.591H3.061V1.529A1.933,1.933,0,0,1,3.626.16,1.91,1.91,0,0,1,4.983-.4H8.449A1.91,1.91,0,0,1,9.807.16a1.935,1.935,0,0,1,.565,1.372v.082h1.584a1.88,1.88,0,0,1,.78,3.591v9.267a2.521,2.521,0,0,1-.678,1.75A2.316,2.316,0,0,1,10.383,16.945ZM2.272,5.359v9.113a.835.835,0,0,0,.778.9h7.332a.835.835,0,0,0,.778-.9V5.359Zm-.8-2.17a.3.3,0,0,0,0,.6H11.955a.3.3,0,1,0,0-.6ZM4.636,1.614H8.8v-.09a.347.347,0,0,0-.347-.351H4.983a.344.344,0,0,0-.244.1.348.348,0,0,0-.1.25Z" transform="translate(0.003 0.002)" fill="#e3001e"/>
  </g>
</svg>
