<svg xmlns="http://www.w3.org/2000/svg" width="17.097" height="16.36" viewBox="0 0 17.097 16.36">
  <g id="Icon_feather-edit-3" data-name="Icon feather-edit-3" transform="translate(-3.5 -3.318)">
    <path id="Trazado_34578" data-name="Trazado 34578" d="M25.548,31H18a1,1,0,0,1,0-2h7.548a1,1,0,0,1,0,2Z" transform="translate(-5.952 -11.322)" fill="#747474"/>
    <path id="Trazado_34579" data-name="Trazado 34579" d="M17.081,3.318a2.779,2.779,0,0,1,1.965,4.744L8.562,18.546a1,1,0,0,1-.465.263l-3.355.839A1,1,0,0,1,3.53,18.435l.839-3.355a1,1,0,0,1,.263-.465L15.115,4.132A2.761,2.761,0,0,1,17.081,3.318ZM7.344,16.936,17.632,6.648a.779.779,0,1,0-1.1-1.1L6.242,15.834,5.874,17.3Z" transform="translate(0 0)" fill="#747474"/>
  </g>
</svg>
