<svg xmlns="http://www.w3.org/2000/svg" width="17.196" height="18.94" viewBox="0 0 17.196 18.94">
  <g id="Icon_feather-database" data-name="Icon feather-database" transform="translate(-3.75 -2.25)">
    <path id="Trazado_34584" data-name="Trazado 34584" d="M12.348,2.25A12.1,12.1,0,0,1,18.27,3.667C20,4.657,20.946,6.018,20.946,7.5S20,10.343,18.27,11.333a12.1,12.1,0,0,1-5.922,1.417,12.1,12.1,0,0,1-5.922-1.417C4.7,10.343,3.75,8.982,3.75,7.5S4.7,4.657,6.426,3.667A12.1,12.1,0,0,1,12.348,2.25Zm0,9c3.848,0,7.1-1.717,7.1-3.75s-3.25-3.75-7.1-3.75S5.25,5.467,5.25,7.5,8.5,11.25,12.348,11.25Z"/>
    <path id="Trazado_34585" data-name="Trazado 34585" d="M12.348,24.969a9.692,9.692,0,0,1-6.025-1.982A6.348,6.348,0,0,1,3.75,18a.75.75,0,0,1,1.5,0,4.881,4.881,0,0,0,2.005,3.812,8.19,8.19,0,0,0,5.093,1.656,8.19,8.19,0,0,0,5.093-1.656A4.881,4.881,0,0,0,19.446,18a.75.75,0,0,1,1.5,0,6.348,6.348,0,0,1-2.573,4.987A9.692,9.692,0,0,1,12.348,24.969Z" transform="translate(0 -7.388)"/>
    <path id="Trazado_34586" data-name="Trazado 34586" d="M12.348,21.19a21.518,21.518,0,0,1-5.769-.7C4.7,19.945,3.75,19.159,3.75,18.157V7.5a.75.75,0,0,1,1.5,0V18.148c.038.108.463.56,1.956.962a20.635,20.635,0,0,0,5.142.58,20.635,20.635,0,0,0,5.142-.58c1.494-.4,1.918-.854,1.956-.962V7.5a.75.75,0,0,1,1.5,0V18.157c0,1-.952,1.789-2.829,2.336A21.518,21.518,0,0,1,12.348,21.19Z"/>
  </g>
</svg>
