<svg xmlns="http://www.w3.org/2000/svg" width="19.75" height="19.75" viewBox="0 0 19.75 19.75">
  <g id="Icon_feather-play-circle" data-name="Icon feather-play-circle" transform="translate(-2.25 -2.25)">
    <path id="Trazado_34587" data-name="Trazado 34587" d="M12.125,2.25A9.875,9.875,0,1,1,2.25,12.125,9.886,9.886,0,0,1,12.125,2.25Zm0,18.25A8.375,8.375,0,1,0,3.75,12.125,8.384,8.384,0,0,0,12.125,20.5Z"/>
    <path id="Trazado_34588" data-name="Trazado 34588" d="M15,11.25a.75.75,0,0,1,.416.126l5.833,3.889a.75.75,0,0,1,0,1.248L15.416,20.4a.75.75,0,0,1-1.166-.624V12a.75.75,0,0,1,.75-.75Zm4.481,4.639L15.75,13.4v4.975Z" transform="translate(-5.131 -3.764)"/>
  </g>
</svg>
