<svg xmlns="http://www.w3.org/2000/svg" width="19.453" height="19.453" viewBox="0 0 19.453 19.453">
  <g id="Icon_ionic-ios-git-compare" data-name="Icon ionic-ios-git-compare" transform="translate(-2.25 -2.25)">
    <path id="Trazado_34589" data-name="Trazado 34589" d="M11.017,15.107a.6.6,0,0,0-.43-.178.594.594,0,0,0-.43.178.6.6,0,0,0-.178.43.594.594,0,0,0,.178.43l0,0,1.785,1.741H8.069a1.81,1.81,0,0,1-1.806-1.02,6.193,6.193,0,0,1-.408-2.54V8.277A3.038,3.038,0,1,0,4.638,8.26v5.888a7.756,7.756,0,0,0,.408,2.835,3.017,3.017,0,0,0,3.022,1.941h3.895L10.24,20.67a.613.613,0,0,0,0,.86l0,0a.628.628,0,0,0,.426.169.587.587,0,0,0,.43-.178l2.5-2.492a.959.959,0,0,0,.282-.682.939.939,0,0,0-.282-.673ZM5.29,7.113A1.824,1.824,0,1,1,7.113,5.29,1.824,1.824,0,0,1,5.29,7.113Z"/>
    <path id="Trazado_34590" data-name="Trazado 34590" d="M24.158,15.694V9.806A7.756,7.756,0,0,0,23.75,6.97a3.023,3.023,0,0,0-3.022-1.941H16.833l1.724-1.746a.613.613,0,0,0,0-.86l0,0a.628.628,0,0,0-.426-.169.587.587,0,0,0-.43.178L15.2,4.92a.959.959,0,0,0-.282.682.939.939,0,0,0,.282.673l2.588,2.579a.6.6,0,0,0,.43.178.594.594,0,0,0,.43-.178.6.6,0,0,0,.178-.43.594.594,0,0,0-.178-.43l0,0L16.85,6.245h3.878a1.81,1.81,0,0,1,1.806,1.02,6.193,6.193,0,0,1,.408,2.54v5.871a3.038,3.038,0,1,0,1.216.017Zm-.651,4.794a1.824,1.824,0,1,1,1.824-1.824A1.824,1.824,0,0,1,23.507,20.487Z" transform="translate(-4.843)"/>
  </g>
</svg>
