<svg xmlns="http://www.w3.org/2000/svg" width="18.117" height="20" viewBox="0 0 18.117 20">
  <path id="Icon_simple-hackhands" data-name="Icon simple-hackhands" d="M5.17,14.692h5.292a.746.746,0,0,0-.008-1.492H5.17a.738.738,0,0,0-.742.742.747.747,0,0,0,.75.75Zm9.4-3.217a.747.747,0,0,0-.75-.75H6.2a.75.75,0,0,0,.008,1.5h7.625a.747.747,0,0,0,.75-.75ZM16.12,9a.758.758,0,0,0-.742-.733H6.2A.742.742,0,1,0,6.2,9.75h9.175A.74.74,0,0,0,16.12,9ZM5.453,6.517a.74.74,0,0,0,.75.742H14.12a.742.742,0,0,0-.008-1.483H6.2a.733.733,0,0,0-.742.742ZM7.353,3.3H5.17a.746.746,0,1,0,.008,1.492h2.2a.747.747,0,0,0,.75-.75A.775.775,0,0,0,7.353,3.3ZM19.812,17.333a.775.775,0,0,0-.783-.783H4.67A1.46,1.46,0,0,1,3.228,15.1V2.975A1.448,1.448,0,0,1,4.67,1.533H16.8a1.444,1.444,0,0,1,1.45,1.442v9.833a.763.763,0,1,0,1.525,0V2.975A2.977,2.977,0,0,0,16.8,0H4.67A2.975,2.975,0,0,0,1.7,2.975V15.1A2.977,2.977,0,0,0,4.67,18.075H17.753L19.812,20Z" transform="translate(-1.695)"/>
</svg>
